#!OML:ASF F:\VICON\USERDATA\INSTALL\rory3\rory3.ASF
:FULLY-SPECIFIED
:DEGREES
753
root -1.72197 19.0366 9.87534 -701.14 31.8628 -345.964
lowerback -2.35078 -2.16915 -7.14042
upperback -12.2987 -3.46689 -5.01882
thorax -11.9033 -1.19462 -1.24841
lowerneck -13.3911 0.84496 -1.90203
upperneck 29.869 1.25586 2.33317
head 11.983 0.739797 1.40104
rclavicle -5.36719e-015 -5.40694e-014
rhumerus 334.247 13.2939 -432.436
rradius 22.7576
rwrist -15.0728
rhand 6.66552 1.77934
rfingers 7.12502
rthumb 31.9573 -25.4352
lclavicle -5.36719e-015 -5.40694e-014
lhumerus 3.88136 -56.468 64.5424
lradius 33.3523
lwrist 6.20717
lhand 4.16176 24.0009
lfingers 7.12502
lthumb 29.5701 51.6652
rfemur -15.1975 13.5707 16.3746
rtibia 14.4464
rfoot 4.84848 -33.8209
rtoes 55.1671
lfemur -167.858 75.828 -111.578
ltibia 131.254
lfoot 40.8712 59.0873
ltoes 48.2805
754
root -1.71631 19.0299 9.83948 -701.866 29.5012 -346.389
lowerback -1.84732 -2.2771 -6.76209
upperback -12.4888 -3.69884 -5.06619
thorax -12.4573 -1.34534 -1.4786
lowerneck -13.2204 -0.491389 -2.19381
upperneck 29.7863 -0.623122 2.22002
head 11.9675 -0.169036 1.14072
rclavicle 9.67087e-014 3.81667e-014
rhumerus 333.009 16.6924 -434.91
rradius 25.1329
rwrist -17.6968
rhand 7.54705 1.39511
rfingers 7.12502
rthumb 32.7963 -25.6479
lclavicle 9.67087e-014 3.81667e-014
lhumerus 3.97614 -59.0554 64.5299
lradius 34.7318
lwrist 8.07947
lhand 4.56824 23.6905
lfingers 7.12502
lthumb 29.9581 51.2854
rfemur -15.4142 12.6879 16.6285
rtibia 14.8784
rfoot 7.77021 -32.6065
rtoes 53.7661
lfemur -167.474 76.3444 -111.579
ltibia 131.244
lfoot 37.215 59.8025
ltoes 50.7626
755
root -1.73433 19.0155 9.78209 -702.485 26.671 -346.34
lowerback -1.7744 -2.37752 -7.30292
upperback -12.0333 -3.86084 -5.05561
thorax -11.9287 -1.39633 -1.14173
lowerneck -13.7473 -1.88938 -2.7116
upperneck 29.3442 -2.53134 2.15064
head 11.9628 -1.11135 0.924316
rclavicle -4.37326e-015 -3.33958e-014
rhumerus 333.156 19.6749 -436.753
rradius 27.5949
rwrist -20.3935
rhand 8.43499 0.675381
rfingers 7.12502
rthumb 33.6405 -26.1875
lclavicle -4.37326e-015 -3.33958e-014
lhumerus 6.59422 -60.847 62.4195
lradius 36.1102
lwrist 10.4043
lhand 4.80804 24.0023
lfingers 7.12502
lthumb 30.1869 51.5556
rfemur -15.7503 12.9782 16.2523
rtibia 15.3814
rfoot 7.59341 -32.0609
rtoes 53.3709
lfemur -165.853 76.4643 -110.905
ltibia 130.975
lfoot 34.5821 60.4386
ltoes 51.7162
756
root -1.74616 18.9863 9.73225 -703.367 23.9831 -346.854
lowerback -0.799804 -2.39982 -7.22492
upperback -12.4478 -4.05276 -4.91302
thorax -13.0184 -1.463 -0.986883
lowerneck -13.5428 -3.25 -4.17822
upperneck 30.3123 -4.50175 3.17178
head 12.4412 -2.03799 1.28018
rclavicle -1.81888e-014 1.27222e-014
rhumerus 331.426 22.9301 -439.071
rradius 30.2289
rwrist -22.9281
rhand 9.60053 -0.341856
rfingers 7.12502
rthumb 34.7474 -26.9565
lclavicle -1.81888e-014 1.27222e-014
lhumerus 6.27552 -63.211 62.8433
lradius 37.3474
lwrist 12.5244
lhand 4.90072 24.2782
lfingers 7.12502
lthumb 30.2753 51.8153
rfemur -15.8993 12.9684 16.6231
rtibia 15.8035
rfoot 10.3217 -30.7193
rtoes 51.7894
lfemur -165.689 76.412 -110.739
ltibia 130.816
lfoot 34.4401 60.3855
ltoes 51.2075
757
root -1.74079 18.9637 9.69006 -704.354 21.4901 -347.472
lowerback -0.673947 -2.50155 -6.84681
upperback -12.2114 -4.18093 -4.81929
thorax -12.8154 -1.57824 -1.06548
lowerneck -13.713 -4.56468 -5.55596
upperneck 30.9982 -6.47364 4.27236
head 12.9582 -2.93792 1.63559
rclavicle 1.78906e-014 7.23576e-014
rhumerus 330.883 26.1081 -441.087
rradius 32.6965
rwrist -25.2322
rhand 10.3108 -0.852152
rfingers 7.12502
rthumb 35.4211 -27.3088
lclavicle 1.78906e-014 7.23576e-014
lhumerus 8.15834 -65.1559 61.0083
lradius 38.7781
lwrist 14.8024
lhand 5.45629 24.8218
lfingers 7.12502
lthumb 30.8051 52.2603
rfemur -15.8162 12.4291 17.2315
rtibia 16.3118
rfoot 11.3481 -29.1641
rtoes 51.1529
lfemur -164.704 76.6283 -109.508
ltibia 130.635
lfoot 34.5795 60.1545
ltoes 50.876
758
root -1.7304 18.9495 9.661 -705.134 18.8493 -347.638
lowerback -0.647818 -2.47483 -6.82058
upperback -11.7365 -4.13192 -4.8337
thorax -12.264 -1.5866 -1.08788
lowerneck -14.182 -6.01274 -6.74999
upperneck 31.2203 -8.52663 4.9214
head 13.3906 -3.89982 1.74249
rclavicle -5.26779e-015 1.66979e-014
rhumerus 330.837 28.8512 -442.397
rradius 35.2672
rwrist -27.3076
rhand 10.9857 -1.28911
rfingers 7.12502
rthumb 36.0607 -27.5907
lclavicle -5.26779e-015 1.66979e-014
lhumerus 11.5309 -66.5807 58.016
lradius 40.234
lwrist 16.8737
lhand 6.23688 24.9933
lfingers 7.12502
lthumb 31.549 52.2887
rfemur -15.6802 12.0107 17.3041
rtibia 16.7276
rfoot 12.9299 -27.2909
rtoes 50.4022
lfemur -163.124 77.0385 -108.366
ltibia 130.184
lfoot 34.819 59.7824
ltoes 50.8729
